<?xml version="1.0" standalone="yes"?>
<svg xmlns="http://www.w3.org/2000/svg" width="128" height="128">
<path style="fill:#160a6f; stroke:none;" d="M49 94L78 94L78 111L78.0046 113L78.0586 114.996C78.1554 116.296 78.3326 117.635 79.0278 118.772L79.6034 119.566L81.1481 120.821L83.0193 121.566L84.0046 121.772L85.0008 121.891L87 121.985L90 122L94 122L101 122L105 121.999L107.995 121.941L108.981 121.852L110.852 121.397L112.397 120.397L112.972 119.682L113.397 118.852L113.682 117.941L113.941 115.995C113.997 114.998 113.995 113.999 113.999 113L114 110L114 86L114 75C113.999 72.9994 114.02 70.9984 113.91 69C113.856 67.9938 113.718 66.9945 113.561 66L113.192 64C112.914 62.6574 112.621 61.3218 112.255 60C111.975 58.9913 111.653 57.9952 111.329 57L110 53C109.218 50.6572 108.446 48.3113 107.575 46L104.424 38L102.576 33L101.05 29L99.5764 25L98.0502 21L96.1883 16L94.9452 13.0039L94.4676 12.0154L93.3009 10.1088L91.7755 8.43364L90.892 7.74229L88.9846 6.74229L86.9992 6.22839L85 6.04398L81 6L61 6L47 6.00077L44 6.04012L42.0039 6.18904L41.0154 6.34414L40.0432 6.57253L38.213 7.3179L36.6381 8.51389L35.9691 9.27855L34.8248 11.0548L33.8765 13.0046L33.4529 14.0008L32.6844 16L31.189 20L28.4244 27L26.5764 32L25.0502 36L23.189 41C22.0268 44.0005 20.7554 46.9607 19.6952 50C19.2342 51.3215 18.8161 52.6564 18.4244 54L17.2801 58C16.6814 59.9979 15.9831 61.9682 15.5031 64C15.2687 64.9922 15.097 65.9959 14.9236 67L14.4282 70C14.2852 70.9965 14.144 71.9937 14.0895 73C14.0173 74.3333 14.0049 75.665 14.0008 77L14 81L14 97L14 111L14.0046 113L14.0586 114.996C14.1554 116.296 14.3326 117.635 15.0278 118.772L15.6034 119.566L17.1481 120.821L19.0193 121.566L20.0046 121.772L22 121.956C22.9959 122.018 24.0027 121.996 25 121.999L29 122L36 122L40 121.996C40.9982 121.982 41.9884 121.961 42.9846 121.891L43.956 121.772L45.7716 121.258L47.2577 120.258L47.821 119.566C48.5336 118.531 48.7927 117.214 48.8912 115.985C49.0239 114.327 48.9972 112.662 49 111L49 94M76 64L51 64L51.3542 62.3287L51.4977 61.841L51.7654 60.8395L53.2801 56L54.7199 51L56.0008 47L57.0039 44.0039L57.7106 42.044L58.108 41.1088L58.5579 40.2284L59.7022 38.7423L61.2245 37.7469L63.0394 37.287L64.9491 37.3619L66.7222 38.0316L68.1566 39.3179L68.7215 40.1481L69.1968 41.0586L69.956 43.0046C70.3052 43.9859 70.5727 44.9993 70.8588 46L72.0255 50C72.8555 52.6715 73.8034 55.3045 74.5718 57.9954C74.9811 59.4288 75.3437 60.8749 75.6728 62.3287L76 64z"/>
</svg>
