<svg class="canvas" viewBox="0 0 1920 1080" preserveAspectRatio="xMaxYMid slice" xmlns="http://www.w3.org/2000/svg"
     version="1.1" xmlns:xlink="http://www.w3.org/1999/xlink" xmlns:svgjs="http://svgjs.dev/svgjs">
  <rect width="1920" height="1080" fill="hsl(79, 65%, 15%)"></rect>
  <defs>
    <linearGradient x1="0.5" y1="0" x2="0" y2="1" id="SvgjsLinearGradient1007">
      <stop stop-color="#ffffff" offset="0"></stop>
      <stop stop-color="#ffffff" offset="0.1"></stop>
    </linearGradient>
    <linearGradient x1="0.5" y1="0" x2="0" y2="1" id="SvgjsLinearGradient1008">
      <stop stop-color="#308a28" offset="0"></stop>
      <stop stop-color="#061413" offset="0.22857142857142856"></stop>
    </linearGradient>
    <linearGradient x1="0.5" y1="0" x2="0" y2="1" id="SvgjsLinearGradient1009">
      <stop stop-color="#588a28" offset="0"></stop>
      <stop stop-color="#06140d" offset="0.3571428571428571"></stop>
    </linearGradient>
    <linearGradient x1="0.5" y1="0" x2="0" y2="1" id="SvgjsLinearGradient1010">
      <stop stop-color="#cef2c0" offset="0"></stop>
      <stop stop-color="#42d7ad" offset="0.48571428571428565"></stop>
    </linearGradient>
    <linearGradient x1="0.5" y1="0" x2="0" y2="1" id="SvgjsLinearGradient1011">
      <stop stop-color="#c4f2c0" offset="0"></stop>
      <stop stop-color="#42d7ca" offset="0.6142857142857142"></stop>
    </linearGradient>
    <linearGradient x1="0.5" y1="0" x2="0" y2="1" id="SvgjsLinearGradient1012">
      <stop stop-color="#c0f2c6" offset="0"></stop>
      <stop stop-color="#42c5d7" offset="0.7428571428571429"></stop>
    </linearGradient>
    <linearGradient x1="0.5" y1="0" x2="0" y2="1" id="SvgjsLinearGradient1013">
      <stop stop-color="#cef2c0" offset="0"></stop>
      <stop stop-color="#42d7ad" offset="0.8714285714285713"></stop>
    </linearGradient>
  </defs>
  <path
    d="M0,-493.42290433141545C50.75032318835385,-479.99563473073533,193.3569397611392,-441.5879123872386,304.5019391301231,-412.8592867273346C415.646938499107,-384.13066106743065,559.2429932308237,-346.95204811732935,666.8699962139034,-321.0511503719915C774.4969991969831,-295.1502526266537,848.8914183430045,-292.3307540710301,950.2639570286013,-257.45390025530753C1051.6364957141982,-222.57704643958496,1161.4389913534471,-143.58303779914237,1275.1052283274842,-111.79002747765611C1388.7714653015212,-79.99701715616985,1524.7789169274047,-93.0903588507634,1632.261378872824,-66.69583832638995C1739.7438408182434,-40.3013178020165,1872.0435631454707,27.69827333608881,1920,46.57709566858456L 1920 1080 L 0 1080 Z"
    fill="url(&quot;#SvgjsLinearGradient1007&quot;)"></path>
  <path
    d="M0,-432.46313870660845C43.37082811105656,-415.93047546711693,166.16143854069315,-357.0756754985014,260.22496866633935,-333.26715926965943C354.28849879198555,-309.45864304081744,471.4513930260244,-312.2883444971352,564.3811807538771,-289.6120413335564C657.3109684817297,-266.93573816997764,724.2757798625823,-228.2422821783153,817.8036950334553,-197.2093402881869C911.3316102043282,-166.1763983980585,1036.2958503971836,-127.57389690513224,1125.5486717791143,-103.414389992786C1214.801493161045,-79.25488308043975,1262.208144360959,-78.49357587422739,1353.3206233250392,-52.25229881410945C1444.4331022891192,-26.011021753991514,1577.7769827844352,25.020793302385737,1672.2235455635953,54.03327236792162C1766.6701083427554,83.0457514334575,1878.7039242605993,110.5243583772418,1920,121.82257557910583L 1920 1080 L 0 1080 Z"
    fill="url(&quot;#SvgjsLinearGradient1008&quot;)"></path>
  <path
    d="M0,-273.02391648614656C43.21893988133511,-269.9282466260611,174.32116108137512,-276.76669031264197,259.3136392880107,-254.4498973256337C344.30611749464623,-232.1331043386255,428.11152564303836,-177.19244317698102,509.9548692398132,-139.12315856409717C591.798212836588,-101.05387395121332,665.6612708679421,-60.09158319382755,750.3737008686599,-26.03418964833064C835.0861308693776,8.023203897166276,952.6649852696513,51.365596621617435,1018.2294492441198,65.22120270888433C1083.7939132185882,79.07680879615123,1063.5791244342665,46.85911277821322,1143.7604847154705,57.09944687527076C1223.9418449966745,67.33978097232828,1411.295043374223,102.05501012677153,1499.3176109313433,126.66320729122953C1587.3401784884636,151.2714044556875,1601.7821585467486,176.60124572967658,1671.8958900581915,204.74862986201867C1742.0096215696344,232.89601399436077,1878.6493150096985,280.4143650480715,1920,295.54751208528205L 1920 1080 L 0 1080 Z"
    fill="url(&quot;#SvgjsLinearGradient1009&quot;)"></path>
  <path
    d="M0,-128.22133052308374C50.5655570396922,-114.48230731846098,192.90101179197984,-77.51263580005609,303.3933422381532,-45.7871912953472C413.88567268432655,-14.061746790638313,557.4132701160008,25.892634197587533,662.9539826770401,62.131336505169564C768.4946952380794,98.3700388127516,840.1781766763415,144.87359787931547,936.6376176043891,171.645022550145C1033.0970585324367,198.41644722097453,1131.7930259941138,184.0983872952918,1241.7106282453253,222.7598845301467C1351.6282304965368,261.4213817650016,1483.0950024858796,364.96801799195583,1596.1432311116587,403.61400595927455C1709.1914597374378,442.25999392659327,1866.023871851943,446.13217793826175,1920,454.63581233405915L 1920 1080 L 0 1080 Z"
    fill="url(&quot;#SvgjsLinearGradient1010&quot;)"></path>
  <path
    d="M0,-5.28033318429911C39.822071398588754,8.947955396472347,149.67434004343488,49.77656008051578,238.9324283915325,80.08939830032963C328.19051673963014,110.40223652014349,430.05060253823274,141.81002086097084,535.5485300885858,176.596696134584C641.0464576389389,211.38337140819715,786.3322134543139,257.96207635706367,871.9199936936511,288.8094499420086C957.5077739329884,319.65682352695353,967.6429987527583,331.2061429768804,1049.0752115246094,361.6809376442536C1130.5074242964604,392.1557323116268,1252.766818757371,442.0059172554763,1360.513270324757,471.65821794624765C1468.259721892143,501.310518637019,1602.3061326497177,519.5606907868303,1695.553920928925,539.594741788882C1788.8017092081323,559.6287927909336,1882.5923201548208,583.1512269302788,1920,591.8625239585581L 1920 1080 L 0 1080 Z"
    fill="url(&quot;#SvgjsLinearGradient1011&quot;)"></path>
  <path
    d="M0,83.03025842352199C49.90255944246855,102.79263349478461,191.50045731290066,158.57720006559262,299.4153566548113,201.60450885109776C407.330255996722,244.6318176366029,528.3259225482689,309.24747725043574,647.4893960514639,341.1941111365528C766.652869554659,373.1407450226699,915.6541360516229,367.22857049151696,1014.396197673982,393.2843121678002C1113.138259296341,419.3400538440834,1136.4093755347749,466.7982089928976,1239.9417657856184,497.52856119425223C1343.4741560364619,528.2589133956069,1522.247500143312,544.8447139329543,1635.5905391790423,577.6664253759278C1748.9335782147725,610.4881368189014,1872.5984231965072,674.9934291060658,1920,694.4588298520935L 1920 1080 L 0 1080 Z"
    fill="url(&quot;#SvgjsLinearGradient1012&quot;)"></path>
  <path
    d="M0,259.3597166949824C52.16393801783101,269.33632531361036,212.93333067491142,294.16297035692,312.98362810698603,319.21936840675016C413.03392553906065,344.2757664565803,495.6167567528046,366.2372438176148,600.3017845924478,409.6981049939633C704.986812432091,453.15896617031177,821.0963463175216,544.9467528977547,941.0937951448453,579.984535464841C1061.091243972169,615.0223180319273,1205.303206243255,583.2659710346949,1320.28647755639,619.924800396481C1435.269748869525,656.5836297582672,1531.041169283054,755.7459779667602,1630.9934230236556,799.937511635558C1730.9456767642573,844.1290453043559,1871.8322371706092,870.8845872803165,1920,885.0740024092682L 1920 1080 L 0 1080 Z"
    fill="url(&quot;#SvgjsLinearGradient1013&quot;)"></path>
</svg>
