<?xml version="1.0" encoding="UTF-8"?> <svg xmlns="http://www.w3.org/2000/svg" id="Layer_1" data-name="Layer 1" viewBox="0 0 301.4 179.97"><defs><style>.cls-1,.cls-7{fill:#fff;}.cls-1,.cls-4{stroke:#555e66;stroke-miterlimit:10;}.cls-2{fill:#555e66;}.cls-3,.cls-4{fill:#2aa5de;stroke-width:0.75px;}.cls-3,.cls-6{stroke:#fff;}.cls-5{fill:#27aae1;}.cls-6{fill:none;stroke-miterlimit:3.86;}</style></defs><title>acquia-cert-bowtie</title><path class="cls-1" d="M264.07,459.14c-20,0-36.13-8.13-50.34-22.07l-90.29,12.31,21.29-46.64-4.41-20.15,4.41-20.15-21.29-46.64,92.73,12.6c14-12.85,28.85-20.43,47.9-20.43s28.8,9,42.79,21.93l16.05-2,90.44-12.14-21.8,46.71,4.39,20.09-4.39,20.09,21.8,46.71-90.44-12.14-14.09-1.63C294.58,449.76,284.2,459.14,264.07,459.14Z" transform="translate(-113.69 -281.41)"></path><path class="cls-2" d="M399.05,324.7l-11.42,1.53L321,335.18H215.32L149,326.24l-11.31-1.52,4.74,10.39L155,362.77,151,381.29l-.29,1.35L151,384,155,402.51,142.4,430.18l-4.74,10.39L149,439l66.34-8.94H321L387.63,439l11.42,1.53-4.87-10.44-12.9-27.65,4-18.5.29-1.35-.29-1.35-4-18.5,12.9-27.65,4.87-10.44Z" transform="translate(-113.69 -281.41)"></path><path class="cls-3" d="M259.54,282.76c-6.61,26.85-70.76,37.82-70.76,101,0,36.87,31.31,77.2,75.55,77.2,43.67,0,75.35-37.82,75.35-77.2C339.68,316.16,268.72,310.47,259.54,282.76Z" transform="translate(-113.69 -281.41)"></path><polygon class="cls-4" points="93.24 101.07 87.84 80.61 104.23 67.23 111.89 47.51 133.01 46.32 150.8 34.87 168.59 46.32 189.72 47.51 197.38 67.23 213.76 80.61 208.37 101.07 213.76 121.52 197.38 134.91 189.72 154.62 168.59 155.82 150.8 167.26 133.01 155.82 111.89 154.62 104.23 134.91 87.84 121.52 93.24 101.07"></polygon><polygon class="cls-4" points="94.86 114.61 84.8 96 97.58 79.14 100.38 58.17 120.63 52.04 135.23 36.73 155.21 43.67 176.02 39.86 188.11 57.22 207.19 66.37 206.76 87.52 216.81 106.13 204.03 123 201.23 143.96 180.98 150.09 166.38 165.41 146.4 158.46 125.59 162.27 113.5 144.91 94.42 135.76 94.86 114.61"></polygon><polygon class="cls-4" points="96.77 90.08 95.61 69.85 113.55 60.42 124.5 43.37 144.55 46.28 163.43 38.93 177.94 53.07 197.55 58.22 200.98 78.19 213.8 93.87 204.84 112.05 206 132.28 188.06 141.72 177.12 158.76 157.06 155.85 138.18 163.21 123.66 149.06 104.06 143.91 100.63 123.94 87.8 108.25 96.77 90.08"></polygon><polygon class="cls-5" points="300.45 82.49 0.95 82.49 14.88 102.86 0.95 123.23 300.45 123.23 286.52 102.86 300.45 82.49"></polygon><polygon class="cls-6" points="300.45 82.49 0.95 82.49 14.88 102.86 0.95 123.23 300.45 123.23 286.52 102.86 300.45 82.49"></polygon><path class="cls-7" d="M272.81,351.49c0,1.8-.91,2.91-2.38,2.91s-2.39-1.12-2.39-2.91v-4.35H266.3v4.35c0,2.65,1.73,4.58,4.12,4.58s4.14-1.92,4.14-4.58v-4.36h-1.75Z" transform="translate(-113.69 -281.41)"></path><rect class="cls-7" x="162.48" y="65.72" width="1.74" height="8.69"></rect><path class="cls-7" d="M252.74,348.63a2.92,2.92,0,0,1,2,.78,6.11,6.11,0,0,1,.83-1.49,4.61,4.61,0,1,0,0,7.28,6.1,6.1,0,0,1-.83-1.48,2.93,2.93,0,1,1-2-5.09Z" transform="translate(-113.69 -281.41)"></path><path class="cls-7" d="M286.24,348.46l-.33-.34a3.68,3.68,0,0,0-2.7-1.24,3.76,3.76,0,0,0-2.9,1.29,4.71,4.71,0,0,0-1.17,3.26,4.86,4.86,0,0,0,1.17,3.33,3.82,3.82,0,0,0,5.6.14l.33-.3v1.2H288v-8.67h-1.72Zm-.64,5.25a2.6,2.6,0,0,1-2,.86,2.47,2.47,0,0,1-1.95-.89,3.35,3.35,0,0,1-.74-2.24,3.21,3.21,0,0,1,.76-2.17,2.51,2.51,0,0,1,1.95-.88,2.56,2.56,0,0,1,2,.88,3.62,3.62,0,0,1,0,4.45Z" transform="translate(-113.69 -281.41)"></path><path class="cls-7" d="M265,351.56a4.58,4.58,0,0,0-4.42-4.6h0c-.08,0-.11,0-.08.09v0a5,5,0,0,0,1.31,1.75,3.43,3.43,0,0,1,1.51,2.73,2.89,2.89,0,1,1-5.78,0,3.42,3.42,0,0,1,1.51-2.73,4.83,4.83,0,0,0,1.32-1.77c0-.06,0-.11-.06-.11h0a4.62,4.62,0,0,0-4.51,4.61,4.56,4.56,0,0,0,4.55,4.45,4.85,4.85,0,0,0,3.11-1l.87.83h2.53l-2.31-2.19A4.59,4.59,0,0,0,265,351.56Z" transform="translate(-113.69 -281.41)"></path><path class="cls-7" d="M243.22,345.28a.74.74,0,0,0-.67.43L238,355.82h1.82l.66-1.45H246l.65,1.45h1.82l-4.56-10.11A.74.74,0,0,0,243.22,345.28Zm-2,7.47,2-4.49,2,4.49Z" transform="translate(-113.69 -281.41)"></path><path class="cls-7" d="M289.68,347h0a.82.82,0,1,0,.84.82A.83.83,0,0,0,289.68,347Zm0,1.48a.66.66,0,0,1,0-1.31h0a.63.63,0,0,1,.63.66A.63.63,0,0,1,289.68,348.43Z" transform="translate(-113.69 -281.41)"></path><path class="cls-7" d="M289.87,347.8h0a.21.21,0,0,0,.17-.2.23.23,0,0,0-.08-.18.46.46,0,0,0-.28-.06,1.68,1.68,0,0,0-.32,0v.82h.19v-.33h.09c.11,0,.16,0,.17.13a.78.78,0,0,0,.06.2h.21a.55.55,0,0,1-.06-.2C290,347.89,289.95,347.83,289.87,347.8Zm-.22-.06h-.09v-.24h.1c.12,0,.18,0,.18.13S289.75,347.74,289.64,347.74Z" transform="translate(-113.69 -281.41)"></path><path class="cls-7" d="M156.5,384.72a8.4,8.4,0,0,1,8.74-8.62,7.53,7.53,0,0,1,6.69,3.75l-2.5,1.27a5,5,0,0,0-4.2-2.42,6,6,0,0,0,0,12,4.89,4.89,0,0,0,4.2-2.42l2.5,1.27a7.56,7.56,0,0,1-6.69,3.75A8.4,8.4,0,0,1,156.5,384.72Z" transform="translate(-113.69 -281.41)"></path><path class="cls-7" d="M177.05,393V376.37h11.41v2.57H180v4.32h8.32v2.57H180v4.62h8.49V393Z" transform="translate(-113.69 -281.41)"></path><path class="cls-7" d="M203.74,393l-3.7-6.22h-2.9V393h-2.92V376.37h7.32c3.3,0,5.44,2.15,5.44,5.22a4.67,4.67,0,0,1-3.95,4.89l4.07,6.54Zm.25-11.44a2.63,2.63,0,0,0-2.85-2.65h-4v5.3h4A2.63,2.63,0,0,0,204,381.59Z" transform="translate(-113.69 -281.41)"></path><path class="cls-7" d="M216.4,393V378.95h-5v-2.57h13v2.57h-5V393Z" transform="translate(-113.69 -281.41)"></path><path class="cls-7" d="M229.61,393V376.37h2.92V393Z" transform="translate(-113.69 -281.41)"></path><path class="cls-7" d="M238.85,393V376.37h11.41v2.57h-8.49v4.32h8.32v2.57h-8.32V393Z" transform="translate(-113.69 -281.41)"></path><path class="cls-7" d="M255.65,393V376.37h2.92V393Z" transform="translate(-113.69 -281.41)"></path><path class="cls-7" d="M264.14,384.72a8.4,8.4,0,0,1,8.74-8.62,7.53,7.53,0,0,1,6.69,3.75l-2.5,1.27a5,5,0,0,0-4.2-2.42,6,6,0,0,0,0,12,4.89,4.89,0,0,0,4.2-2.42l2.5,1.27a7.56,7.56,0,0,1-6.69,3.75A8.4,8.4,0,0,1,264.14,384.72Z" transform="translate(-113.69 -281.41)"></path><path class="cls-7" d="M296.23,393l-1.22-3.2h-7.64l-1.22,3.2h-3.32l6.54-16.66H293L299.55,393Zm-5-13.71-3,7.94h6Z" transform="translate(-113.69 -281.41)"></path><path class="cls-7" d="M306.48,393V378.95h-5v-2.57h13v2.57h-5V393Z" transform="translate(-113.69 -281.41)"></path><path class="cls-7" d="M319.69,393V376.37h2.92V393Z" transform="translate(-113.69 -281.41)"></path><path class="cls-7" d="M328.18,384.72a8.52,8.52,0,1,1,8.52,8.62A8.26,8.26,0,0,1,328.18,384.72Zm14,0c0-3.45-2.17-6-5.52-6s-5.52,2.57-5.52,6,2.15,6,5.52,6S342.22,388.14,342.22,384.72Z" transform="translate(-113.69 -281.41)"></path><path class="cls-7" d="M362.41,393l-8.69-11.89V393H350.8V376.37h3l8.52,11.56V376.37h2.92V393Z" transform="translate(-113.69 -281.41)"></path></svg> 